<svg width="17" height="17" viewBox="0 0 17 17" fill="none" xmlns="http://www.w3.org/2000/svg">
<path d="M12.5243 6.99703C12.5243 5.80123 12.0493 4.65441 11.2037 3.80886C10.3582 2.9633 9.21136 2.48827 8.01557 2.48827C6.81977 2.48827 5.67295 2.9633 4.8274 3.80886C3.98184 4.65441 3.50681 5.80123 3.50681 6.99703C3.50681 8.84662 4.98669 11.2573 8.01557 14.1449C11.0444 11.2573 12.5243 8.84662 12.5243 6.99703ZM8.01557 15.5136C4.34143 12.1741 2.50487 9.33457 2.50487 6.99703C2.50487 5.5355 3.08546 4.13383 4.11891 3.10037C5.15237 2.06692 6.55404 1.48633 8.01557 1.48633C9.4771 1.48633 10.8788 2.06692 11.9122 3.10037C12.9457 4.13383 13.5263 5.5355 13.5263 6.99703C13.5263 9.33457 11.6897 12.1741 8.01557 15.5136Z" fill="black"/>
<path d="M8.01556 8.49997C8.41416 8.49997 8.79643 8.34163 9.07828 8.05978C9.36014 7.77792 9.51848 7.39565 9.51848 6.99705C9.51848 6.59845 9.36014 6.21618 9.07828 5.93433C8.79643 5.65248 8.41416 5.49413 8.01556 5.49413C7.61696 5.49413 7.23469 5.65248 6.95284 5.93433C6.67098 6.21618 6.51264 6.59845 6.51264 6.99705C6.51264 7.39565 6.67098 7.77792 6.95284 8.05978C7.23469 8.34163 7.61696 8.49997 8.01556 8.49997V8.49997ZM8.01556 9.50191C7.35123 9.50191 6.71411 9.23801 6.24435 8.76826C5.7746 8.2985 5.5107 7.66138 5.5107 6.99705C5.5107 6.33272 5.7746 5.6956 6.24435 5.22585C6.71411 4.75609 7.35123 4.49219 8.01556 4.49219C8.67989 4.49219 9.31701 4.75609 9.78677 5.22585C10.2565 5.6956 10.5204 6.33272 10.5204 6.99705C10.5204 7.66138 10.2565 8.2985 9.78677 8.76826C9.31701 9.23801 8.67989 9.50191 8.01556 9.50191Z" fill="black"/>
</svg>
