<svg width="17" height="17" viewBox="0 0 17 17" fill="none" xmlns="http://www.w3.org/2000/svg">
<path d="M12.5243 6.99703C12.5243 5.80123 12.0493 4.65441 11.2038 3.80886C10.3582 2.9633 9.21138 2.48827 8.01558 2.48827C6.81979 2.48827 5.67297 2.9633 4.82741 3.80886C3.98186 4.65441 3.50683 5.80123 3.50683 6.99703C3.50683 8.84662 4.9867 11.2573 8.01558 14.1449C11.0445 11.2573 12.5243 8.84662 12.5243 6.99703ZM8.01558 15.5136C4.34145 12.1741 2.50488 9.33457 2.50488 6.99703C2.50488 5.5355 3.08547 4.13383 4.11893 3.10037C5.15239 2.06692 6.55405 1.48633 8.01558 1.48633C9.47711 1.48633 10.8788 2.06692 11.9122 3.10037C12.9457 4.13383 13.5263 5.5355 13.5263 6.99703C13.5263 9.33457 11.6897 12.1741 8.01558 15.5136Z" fill="black"/>
<path d="M8.01554 8.49997C8.41414 8.49997 8.79642 8.34163 9.07827 8.05978C9.36012 7.77792 9.51846 7.39565 9.51846 6.99705C9.51846 6.59845 9.36012 6.21618 9.07827 5.93433C8.79642 5.65248 8.41414 5.49413 8.01554 5.49413C7.61695 5.49413 7.23467 5.65248 6.95282 5.93433C6.67097 6.21618 6.51263 6.59845 6.51263 6.99705C6.51263 7.39565 6.67097 7.77792 6.95282 8.05978C7.23467 8.34163 7.61695 8.49997 8.01554 8.49997V8.49997ZM8.01554 9.50191C7.35121 9.50191 6.71409 9.23801 6.24434 8.76826C5.77459 8.2985 5.51068 7.66138 5.51068 6.99705C5.51068 6.33272 5.77459 5.6956 6.24434 5.22585C6.71409 4.75609 7.35121 4.49219 8.01554 4.49219C8.67988 4.49219 9.317 4.75609 9.78675 5.22585C10.2565 5.6956 10.5204 6.33272 10.5204 6.99705C10.5204 7.66138 10.2565 8.2985 9.78675 8.76826C9.317 9.23801 8.67988 9.50191 8.01554 9.50191Z" fill="black"/>
</svg>
