<svg width="17" height="17" viewBox="0 0 17 17" fill="none" xmlns="http://www.w3.org/2000/svg">
<path d="M12.5243 6.99703C12.5243 5.80123 12.0493 4.65441 11.2037 3.80886C10.3582 2.9633 9.21135 2.48827 8.01555 2.48827C6.81976 2.48827 5.67294 2.9633 4.82738 3.80886C3.98183 4.65441 3.5068 5.80123 3.5068 6.99703C3.5068 8.84662 4.98667 11.2573 8.01555 14.1449C11.0444 11.2573 12.5243 8.84662 12.5243 6.99703ZM8.01555 15.5136C4.34142 12.1741 2.50485 9.33457 2.50485 6.99703C2.50485 5.5355 3.08544 4.13383 4.1189 3.10037C5.15236 2.06692 6.55402 1.48633 8.01555 1.48633C9.47708 1.48633 10.8787 2.06692 11.9122 3.10037C12.9457 4.13383 13.5263 5.5355 13.5263 6.99703C13.5263 9.33457 11.6897 12.1741 8.01555 15.5136Z" fill="black"/>
<path d="M8.01558 8.49997C8.41417 8.49997 8.79645 8.34163 9.0783 8.05978C9.36015 7.77792 9.51849 7.39565 9.51849 6.99705C9.51849 6.59845 9.36015 6.21618 9.0783 5.93433C8.79645 5.65248 8.41417 5.49413 8.01558 5.49413C7.61698 5.49413 7.2347 5.65248 6.95285 5.93433C6.671 6.21618 6.51266 6.59845 6.51266 6.99705C6.51266 7.39565 6.671 7.77792 6.95285 8.05978C7.2347 8.34163 7.61698 8.49997 8.01558 8.49997V8.49997ZM8.01558 9.50191C7.35124 9.50191 6.71412 9.23801 6.24437 8.76826C5.77462 8.2985 5.51071 7.66138 5.51071 6.99705C5.51071 6.33272 5.77462 5.6956 6.24437 5.22585C6.71412 4.75609 7.35124 4.49219 8.01558 4.49219C8.67991 4.49219 9.31703 4.75609 9.78678 5.22585C10.2565 5.6956 10.5204 6.33272 10.5204 6.99705C10.5204 7.66138 10.2565 8.2985 9.78678 8.76826C9.31703 9.23801 8.67991 9.50191 8.01558 9.50191Z" fill="black"/>
</svg>
