<svg width="25" height="25" viewBox="0 0 25 25" fill="none" xmlns="http://www.w3.org/2000/svg">
<g clip-path="url(#clip0_1_930)">
<path d="M4.06421 20.303H21.3975" stroke="#B05D33"/>
<path d="M2.4951 21.3709C2.36492 21.4975 2.36492 21.7029 2.4951 21.8295C2.62527 21.9562 2.83632 21.9562 2.9665 21.8295L2.4951 21.3709ZM7.63319 17.289C7.76333 17.1624 7.76333 16.957 7.63319 16.8303C7.50299 16.7037 7.29194 16.7037 7.16176 16.8303L7.63319 17.289ZM2.9665 21.8295L7.63319 17.289L7.16176 16.8303L2.4951 21.3709L2.9665 21.8295Z" fill="#D67B4D"/>
<path d="M2.4951 21.3709C2.36492 21.4975 2.36492 21.7029 2.4951 21.8295C2.62527 21.9562 2.83632 21.9562 2.9665 21.8295L2.4951 21.3709ZM7.63319 17.289C7.76333 17.1624 7.76333 16.957 7.63319 16.8303C7.50299 16.7037 7.29194 16.7037 7.16176 16.8303L7.63319 17.289ZM2.9665 21.8295L7.63319 17.289L7.16176 16.8303L2.4951 21.3709L2.9665 21.8295Z" fill="#D67B4D"/>
<path d="M22.9666 21.3709C23.0967 21.4975 23.0967 21.7029 22.9666 21.8295C22.8364 21.9562 22.6253 21.9562 22.4951 21.8295L22.9666 21.3709ZM17.8284 17.289C17.6983 17.1624 17.6983 16.957 17.8284 16.8303C17.9586 16.7037 18.1697 16.7037 18.2999 16.8303L17.8284 17.289ZM22.4951 21.8295L17.8284 17.289L18.2999 16.8303L22.9666 21.3709L22.4951 21.8295Z" fill="#D67B4D"/>
<path d="M22.9666 21.3709C23.0967 21.4975 23.0967 21.7029 22.9666 21.8295C22.8364 21.9562 22.6253 21.9562 22.4951 21.8295L22.9666 21.3709ZM17.8284 17.289C17.6983 17.1624 17.6983 16.957 17.8284 16.8303C17.9586 16.7037 18.1697 16.7037 18.2999 16.8303L17.8284 17.289ZM22.4951 21.8295L17.8284 17.289L18.2999 16.8303L22.9666 21.3709L22.4951 21.8295Z" fill="#D67B4D"/>
<path fill-rule="evenodd" clip-rule="evenodd" d="M8.06421 2.95309C8.28641 2.83711 8.79754 2.46598 9.06421 1.90928C9.39754 1.21341 9.73088 0.865479 10.7309 0.865479H12.0642H14.0642C15.0642 0.865479 15.3975 1.21341 15.7309 1.90928C15.9975 2.46598 16.5087 2.83711 16.7309 2.95309H18.7309C19.8355 2.95309 20.7309 3.82432 20.7309 4.89904V13.1674C20.7309 16.7499 17.7461 19.6539 14.0642 19.6539H10.7309C7.04898 19.6539 4.06421 16.7499 4.06421 13.1674V4.89904C4.06421 3.82432 4.95964 2.95309 6.06421 2.95309H8.06421Z" fill="#42A8C3"/>
<path d="M14.0642 2.81149C14.0642 2.73465 14.0154 2.65591 13.9396 2.58033C13.5552 2.19701 12.948 2.16284 12.3975 2.16284C11.847 2.16284 11.2181 2.16703 10.8459 2.56164C10.7755 2.63623 10.7308 2.71951 10.7308 2.81149C10.7308 3.13581 10.7308 3.46014 11.1475 3.46014H13.6475C14.0642 3.46014 14.0642 3.13581 14.0642 2.81149Z" fill="white"/>
<path d="M6.73083 6.68134C6.73083 5.96485 7.32779 5.38403 8.06417 5.38403H16.7308C17.4672 5.38403 18.0642 5.96485 18.0642 6.68134V9.27594C18.0642 11.4254 16.2733 13.1678 14.0642 13.1678H10.7308C8.5217 13.1678 6.73083 11.4254 6.73083 9.27594V6.68134Z" fill="white"/>
<mask id="mask0_1_930" style="mask-type:alpha" maskUnits="userSpaceOnUse" x="6" y="5" width="13" height="9">
<path d="M6.73083 6.68134C6.73083 5.96485 7.32779 5.38403 8.06417 5.38403H16.7308C17.4672 5.38403 18.0642 5.96485 18.0642 6.68134V9.27594C18.0642 11.4254 16.2733 13.1678 14.0642 13.1678H10.7308C8.5217 13.1678 6.73083 11.4254 6.73083 9.27594V6.68134Z" fill="white"/>
</mask>
<g mask="url(#mask0_1_930)">
<path d="M17.0644 6.35701C17.0644 5.57863 15.8422 5.38403 15.0645 5.38403H18.0645L18.0644 13.4922C15.8422 13.6002 9.66442 13.4922 10.7311 13.4922C12.0644 13.4922 14.3978 12.5192 15.3978 11.8705C16.3126 11.2771 17.0645 10.2489 17.0644 9.27594V6.35701Z" fill="#C3D3DB"/>
</g>
</g>
<defs>
<clipPath id="clip0_1_930">
<rect width="24" height="24" fill="white" transform="translate(0.730835 0.172607)"/>
</clipPath>
</defs>
</svg>
