<svg width="163" height="314" viewBox="0 0 163 314" fill="none" xmlns="http://www.w3.org/2000/svg">
<g clip-path="url(#clip0_1_1227)">
<path d="M162.192 21.3473L161.837 24.6886L119.668 295.704C118 306.43 110.036 313.788 101.332 313.347H100.986H100.643H100.297H99.9504H99.6083H99.45C105.729 312.954 111.426 308.534 114.369 301.835C114.544 301.433 114.711 301.026 114.865 300.607C114.972 300.329 115.07 300.046 115.164 299.751C115.599 298.431 115.924 297.078 116.135 295.704L158.77 21.7195C158.8 21.5441 158.825 21.3687 158.843 21.1976C158.952 20.4186 159.022 19.6347 159.052 18.8488C159.454 8.7052 153.291 1.01727 144.416 0.880366H143.89H143.364H142.837C142.666 0.880366 142.487 0.880366 142.311 0.880366H141.785H141.439H141.075L140.609 0.824754H140.583L140.134 0.790527C140.288 0.790527 140.434 0.790527 140.588 0.790527H141.114C141.289 0.790527 141.465 0.790527 141.64 0.790527H142.153H142.679C142.855 0.790527 143.026 0.790527 143.205 0.790527H143.731H144.257H144.784H145.31H145.836C146.011 0.790527 146.182 0.790527 146.358 0.790527H146.486C156.533 2.19806 163.342 10.5063 162.192 21.3473Z" fill="url(#paint0_linear_1_1227)"/>
<path d="M158.77 21.6813L116.148 295.657C114.587 305.694 107.504 312.792 99.4672 313.292H99.279H98.9325H98.5861C98.4749 313.292 98.3551 313.292 98.2439 313.292H97.8975H97.551H97.2046H96.8581H96.516H96.178C95.2536 313.268 94.3345 313.145 93.4364 312.924L30.327 297.206L30.2072 297.176L12.4613 293.065C4.25772 291.174 -0.956128 281.034 0.694854 270.39L38.3338 28.4708L39.1165 23.1102C40.0147 16.9539 42.9189 11.405 46.7341 7.76857C47.0421 7.47338 47.3586 7.19102 47.6794 6.91293C47.8932 6.73325 48.1071 6.55784 48.3295 6.39099C48.5519 6.22414 48.7572 6.06585 48.9925 5.90755C49.7506 5.37683 50.5535 4.91304 51.392 4.52142C51.6272 4.41446 51.8667 4.31179 52.102 4.22195C53.3775 3.70902 54.7317 3.41958 56.1054 3.36631L138.334 0.658203L141.058 0.743766H141.234C141.413 0.743766 141.589 0.743766 141.76 0.743766C141.931 0.743766 142.115 0.743766 142.286 0.743766C142.457 0.743766 142.641 0.743766 142.812 0.743766H143.338C143.513 0.743766 143.689 0.743766 143.864 0.743766H144.39C154.095 0.983345 160.554 10.1558 158.77 21.6813Z" fill="url(#paint1_linear_1_1227)"/>
<path d="M145.083 5.14145C144.846 4.97211 144.6 4.81504 144.347 4.67084C144.583 4.79919 144.831 4.95749 145.083 5.14145ZM143.8 4.37565C143.975 4.46122 144.142 4.55106 144.313 4.64946C144.232 4.61096 144.155 4.56389 144.078 4.52539L143.8 4.37565ZM141.559 3.54996C142.045 3.66891 142.522 3.82188 142.987 4.00773L143.295 4.14035C142.653 3.8573 141.984 3.63944 141.298 3.49006L141.559 3.54996ZM141.058 3.43873L140.913 3.41306L140.656 3.37027C140.874 3.40022 141.084 3.44728 141.298 3.49006H141.259L141.058 3.43873ZM143.539 4.25158H143.5L143.295 4.15746C143.462 4.23447 143.633 4.3072 143.796 4.38849L143.539 4.25158ZM140.117 3.29326H139.831L140.348 3.34888L140.656 3.39167C140.502 3.36172 140.348 3.34033 140.194 3.32321L140.117 3.29326ZM12.7221 290.284L12.8462 290.335H12.8248L12.7221 290.284ZM12.5981 290.228H12.6195L12.4997 290.177L12.5981 290.228ZM12.4398 290.155L12.4997 290.181L12.3714 290.121L12.4398 290.155ZM10.2029 288.726C10.1639 288.697 10.1268 288.666 10.0917 288.632L10.2029 288.726ZM9.39022 287.991L9.53564 288.132L9.38167 287.978L9.39022 287.991ZM5.80596 282.258L5.90434 282.519L5.96849 282.681L5.86584 282.407C5.84446 282.369 5.82734 282.309 5.80596 282.258ZM4.60836 277.41V277.5C4.60836 277.411 4.58269 277.312 4.57414 277.218C4.59124 277.282 4.60408 277.351 4.60836 277.41ZM4.5057 276.482C4.5057 276.482 4.5057 276.512 4.5057 276.525C4.50364 276.505 4.50364 276.485 4.5057 276.465V276.482ZM4.48004 276.14C4.47795 276.151 4.47795 276.163 4.48004 276.174C4.48004 276.063 4.48004 275.943 4.45438 275.828C4.46293 275.952 4.47148 276.033 4.48004 276.14ZM141.058 0.794795C140.746 0.752013 140.434 0.726347 140.117 0.704956C139.997 0.704956 139.869 0.704956 139.741 0.704956C139.612 0.704956 139.411 0.704956 139.249 0.704956C139.086 0.704956 139.052 0.704956 138.95 0.704956H138.351L56.1181 3.43017C54.7442 3.48147 53.3896 3.77098 52.1147 4.28581C51.8795 4.37993 51.64 4.47833 51.4047 4.58956C50.5636 4.97881 49.7592 5.44271 49.0009 5.9757C48.7785 6.12543 48.5732 6.29229 48.3423 6.45914C48.1113 6.62599 47.9145 6.79711 47.6921 6.9768C47.3713 7.24632 47.0548 7.52868 46.7469 7.83244C42.9317 11.4689 40.0275 17.0177 39.1293 23.1698L38.3466 28.5432L3.04292 270.484C1.48604 281.128 6.28072 291.255 13.8513 293.129L30.2071 297.176L30.3269 297.206L93.4106 312.825C94.4176 313.078 95.452 313.205 96.4902 313.202V313.202C104.249 313.181 111.251 305.929 112.769 295.499L152.743 21.4842C154.326 10.6175 149.146 1.85579 141.058 0.794795V0.794795ZM152.534 18.4295V18.9258C152.534 19.0969 152.534 19.2638 152.504 19.4306C152.474 19.5975 152.478 19.7729 152.465 19.9397C152.435 20.2521 152.405 20.5644 152.363 20.8852C152.34 21.0849 152.314 21.286 152.286 21.4885L151.995 23.4693L112.645 293.424C112.338 295.553 111.763 297.634 110.934 299.619C110.874 299.764 110.814 299.91 110.75 300.046C110.686 300.183 110.622 300.337 110.553 300.474C110.485 300.611 110.455 300.688 110.404 300.791C110.25 301.103 110.092 301.411 109.925 301.711C109.856 301.848 109.779 301.98 109.707 302.109C109.634 302.237 109.493 302.472 109.382 302.652C109.27 302.832 109.236 302.891 109.159 303.007C109.082 303.122 109.001 303.255 108.915 303.379C108.693 303.717 108.453 304.051 108.205 304.376C108.128 304.474 108.051 304.577 107.97 304.675C107.889 304.774 107.79 304.902 107.696 305.009C107.602 305.116 107.517 305.227 107.423 305.334C107.329 305.441 107.239 305.548 107.14 305.651C107.042 305.754 106.952 305.861 106.849 305.963C106.661 306.169 106.46 306.365 106.259 306.554C105.951 306.849 105.639 307.131 105.314 307.409L105.023 307.645C104.801 307.816 104.595 307.983 104.347 308.145L104.048 308.35C103.719 308.573 103.381 308.778 103.039 308.967C102.927 309.035 102.812 309.095 102.696 309.155C102.465 309.275 102.23 309.386 101.999 309.493L101.653 309.647C101.276 309.805 100.896 309.946 100.511 310.075C100.411 310.112 100.31 310.143 100.207 310.169C100.087 310.207 99.9675 310.241 99.8435 310.271L99.4757 310.361C99.2019 310.421 98.9282 310.477 98.6502 310.52L98.3593 310.562C97.9958 310.614 97.6322 310.644 97.2601 310.661H96.8751H96.4474C96.1951 310.661 95.947 310.661 95.6904 310.618H95.5449H95.4765H95.4423H95.6348H95.6904C95.8059 310.618 95.9213 310.618 96.0368 310.618C96.0736 310.624 96.1112 310.624 96.148 310.618H97.0035C97.049 310.622 97.0948 310.622 97.1403 310.618H97.2772H97.3841H97.5809C97.6964 310.618 97.8033 310.618 97.9145 310.579L98.1754 310.541L98.3465 310.511H98.4491L98.5475 310.49H98.6074C98.6582 310.483 98.7083 310.471 98.7571 310.455H98.817H98.8597C99.1463 310.391 99.4286 310.318 99.7152 310.233C99.7447 310.228 99.7735 310.22 99.8007 310.207H99.852C99.9162 310.207 99.9761 310.169 100.036 310.143H100.104L100.408 310.036L100.977 309.805H101.011C101.208 309.715 101.4 309.63 101.593 309.531C101.785 309.433 101.965 309.339 102.145 309.24C102.157 309.244 102.17 309.244 102.183 309.24C102.183 309.24 102.183 309.24 102.183 309.24C102.482 309.069 102.778 308.89 103.073 308.693C103.112 308.671 103.15 308.645 103.184 308.616C103.201 308.608 103.217 308.598 103.231 308.586L103.295 308.543L103.359 308.492C103.496 308.398 103.629 308.299 103.761 308.201C103.894 308.102 104.031 307.991 104.159 307.884C104.823 307.34 105.442 306.743 106.011 306.1L106.131 305.959L106.251 305.818C106.571 305.441 106.875 305.048 107.166 304.637C107.363 304.363 107.547 304.081 107.731 303.781C107.799 303.679 107.863 303.567 107.932 303.46L108 303.345L108.235 302.917L108.325 302.759C108.355 302.699 108.389 302.643 108.423 302.579C108.458 302.515 108.483 302.468 108.509 302.417C108.565 302.319 108.617 302.22 108.663 302.117C108.679 302.088 108.693 302.058 108.706 302.027L108.808 301.813C108.868 301.702 108.928 301.582 108.98 301.463C108.98 301.448 108.98 301.434 108.98 301.42C109.035 301.3 109.086 301.184 109.138 301.06L109.305 300.675C109.356 300.547 109.411 300.414 109.463 300.282C109.514 300.149 109.561 300.021 109.613 299.888C109.664 299.756 109.66 299.756 109.685 299.687C109.711 299.619 109.732 299.554 109.758 299.482L109.848 299.221C109.878 299.122 109.912 299.02 109.946 298.917C109.98 298.814 110.019 298.69 110.049 298.57C110.052 298.554 110.052 298.536 110.049 298.519C110.1 298.348 110.151 298.173 110.198 297.997C110.246 297.822 110.314 297.544 110.37 297.317C110.421 297.09 110.472 296.864 110.519 296.632C110.566 296.401 110.596 296.256 110.63 296.063C110.63 296.012 110.63 295.957 110.66 295.901C110.699 295.674 110.742 295.439 110.772 295.208L150.669 21.6724C150.742 21.1548 150.806 20.6328 150.844 20.1237C150.954 18.8697 150.954 17.6086 150.844 16.3546C150.849 16.3407 150.849 16.3258 150.844 16.3118C150.844 16.1749 150.814 16.038 150.797 15.884C150.78 15.73 150.797 15.7043 150.767 15.6145C150.733 15.3706 150.699 15.1311 150.66 14.8958L150.532 14.207C150.506 14.0914 150.481 13.9759 150.459 13.8647C150.438 13.7535 150.404 13.6337 150.378 13.5224C150.381 13.4911 150.381 13.4597 150.378 13.4283C150.378 13.347 150.335 13.27 150.314 13.1887C150.293 13.1286 150.276 13.0672 150.263 13.0048C150.263 12.962 150.263 12.9192 150.224 12.8764L150.126 12.547C150.027 12.2219 149.916 11.9053 149.801 11.593C149.762 11.4946 149.724 11.3962 149.689 11.2978L149.63 11.1566C149.608 11.0967 149.583 11.0368 149.557 10.9812C149.514 10.8828 149.476 10.7844 149.429 10.686C149.343 10.4935 149.253 10.301 149.159 10.1127C149.112 10.0143 149.061 9.91592 149.009 9.81752C148.958 9.71912 148.907 9.62928 148.855 9.53944C148.831 9.48818 148.804 9.4382 148.774 9.3897C148.723 9.29558 148.667 9.20574 148.612 9.11162L148.496 8.9191L148.385 8.75225L148.342 8.6838C148.295 8.61107 148.248 8.53834 148.197 8.46561C148.187 8.44754 148.175 8.43036 148.163 8.41427C148.077 8.2902 147.987 8.16186 147.893 8.03779L147.79 7.89661L147.722 7.80677C147.689 7.7607 147.653 7.71643 147.615 7.67414L147.457 7.47307L147.333 7.32761L147.127 7.09231L147.012 6.96824C146.969 6.91691 146.922 6.86556 146.875 6.8185L146.708 6.64738L146.55 6.48908L146.49 6.43347L146.319 6.27517L146.127 6.09549L146.045 6.02704L145.861 5.86874L145.819 5.8388C145.742 5.77463 145.66 5.70617 145.579 5.64627C145.429 5.53076 145.284 5.42381 145.13 5.31257H145.1C144.863 5.14324 144.617 4.98617 144.364 4.84198V4.84198C144.283 4.80347 144.206 4.75641 144.129 4.71791L143.851 4.56817L143.595 4.44838H143.556L143.351 4.35426C142.708 4.07121 142.039 3.85335 141.353 3.70397H141.315L141.114 3.66119L140.968 3.63552L140.712 3.59274C140.558 3.5628 140.404 3.5414 140.25 3.52429H140.173H139.886H139.711H139.386C139.138 3.52429 138.89 3.52429 138.633 3.52429L55.8316 6.06126C55.6134 6.06126 55.4038 6.06126 55.1814 6.10832L54.8692 6.14255C48.3038 6.99819 42.1789 14.5022 40.8786 23.4222L4.67251 270.856C4.44852 272.373 4.36975 273.907 4.43728 275.438C4.43728 275.438 4.43728 275.464 4.43728 275.472C4.43728 275.592 4.43728 275.712 4.43728 275.828C4.43728 275.943 4.43728 276.033 4.43728 276.14C4.43519 276.151 4.43519 276.163 4.43728 276.174C4.43728 276.273 4.43727 276.367 4.45866 276.465C4.45866 276.465 4.45866 276.495 4.45866 276.508C4.45654 276.529 4.45654 276.551 4.45866 276.572C4.45866 276.645 4.45865 276.713 4.48004 276.786C4.48191 276.807 4.48191 276.829 4.48004 276.85C4.48004 276.85 4.48004 276.85 4.48004 276.876C4.48004 276.983 4.50142 277.094 4.51853 277.201C4.53564 277.308 4.51854 277.333 4.53992 277.393V277.483C4.53992 277.59 4.56987 277.693 4.5827 277.796C4.5827 277.902 4.61264 278.005 4.63402 278.108C4.65541 278.211 4.68534 278.442 4.71956 278.604C4.71956 278.668 4.74095 278.728 4.75378 278.788V278.878C4.75378 278.955 4.78372 279.036 4.80082 279.113C4.80545 279.145 4.81261 279.177 4.82222 279.207C4.8436 279.319 4.86926 279.43 4.89492 279.541C4.92059 279.652 4.92486 279.665 4.9377 279.729C4.95053 279.793 4.9933 279.943 5.01896 280.046L5.05746 280.187C5.05746 280.247 5.0874 280.307 5.10023 280.362C5.11306 280.418 5.10023 280.401 5.10023 280.422L5.12589 280.508C5.12589 280.576 5.16439 280.641 5.1815 280.705L5.26276 280.979C5.37397 281.346 5.498 281.714 5.63059 282.065C5.63059 282.121 5.66909 282.172 5.6862 282.219L5.78458 282.48L5.84873 282.643C6.38388 283.985 7.08817 285.253 7.94454 286.416C8.00014 286.493 8.06002 286.566 8.11562 286.639C8.35942 286.951 8.6075 287.25 8.8684 287.533L8.9069 287.576L8.95395 287.623L9.04805 287.725L9.2234 287.905L9.26191 287.939L9.40733 288.08C9.5442 288.209 9.67679 288.333 9.83504 288.457L9.88209 288.5C9.92058 288.525 9.95052 288.555 9.98902 288.585L10.0917 288.675L10.2414 288.795C10.3782 288.906 10.5194 289.017 10.6691 289.12L10.7503 289.176C10.8673 289.261 10.987 289.342 11.1096 289.419L11.1952 289.479L11.5587 289.698L11.6528 289.749L11.7042 289.779C11.8838 289.881 12.0677 289.976 12.2559 290.065L12.3243 290.1L12.3842 290.125L12.4826 290.172H12.504C12.5681 290.207 12.6366 290.232 12.7093 290.262L12.6066 290.224L12.4869 290.181C12.2773 290.091 12.0592 290.001 11.8795 289.899C10.6382 289.262 9.51322 288.42 8.5519 287.409L8.33804 287.186C8.16268 286.994 7.9873 286.797 7.82049 286.592L7.59381 286.309C7.20458 285.821 6.84605 285.31 6.52025 284.778C6.45539 284.682 6.39542 284.584 6.3406 284.482C6.16096 284.187 5.98988 283.888 5.82735 283.58L5.67337 283.272L5.498 282.912L5.3312 282.553L5.21999 282.309L5.0874 282.001C4.83077 281.381 4.59981 280.739 4.3945 280.084C4.35601 279.969 4.32179 279.849 4.28757 279.729C4.17637 279.366 4.07799 278.993 3.98817 278.613C3.95395 278.48 3.91973 278.343 3.89407 278.185C3.6599 277.15 3.49416 276.101 3.39792 275.045C3.39792 274.899 3.37226 274.754 3.35943 274.617C3.30382 273.877 3.27817 273.132 3.28672 272.379C3.28672 272.23 3.28672 272.076 3.28672 271.926C3.31528 270.85 3.40667 269.778 3.56045 268.713L39.1293 24.8554L39.3902 23.0714C39.4158 22.886 39.4458 22.702 39.48 22.5195C39.48 22.3826 39.5228 22.2457 39.5484 22.0917C39.604 21.7879 39.6639 21.4927 39.7281 21.1975C39.7623 21.0435 39.7965 20.8852 39.835 20.7355C39.835 20.6542 39.8735 20.5729 39.8906 20.4916C39.9077 20.4104 39.9334 20.2991 39.9633 20.2007C39.9933 20.1023 40.0446 19.8927 40.0874 19.7344C40.1586 19.4663 40.2356 19.201 40.3183 18.9387C40.3568 18.806 40.3996 18.6777 40.4424 18.5493C40.5664 18.1557 40.699 17.775 40.8444 17.3942C40.8872 17.2744 40.9385 17.1546 40.9813 17.0349L41.1566 16.607L41.3106 16.2434C41.3491 16.1407 41.3919 16.0466 41.4347 15.9482L41.5929 15.5974L41.7169 15.3321C41.7811 15.2038 41.8367 15.0754 41.9051 14.9428C42.0121 14.7246 42.1276 14.515 42.243 14.2754L42.427 13.9374C42.4954 13.8091 42.5681 13.6807 42.6408 13.5524C43.139 12.6712 43.6904 11.8211 44.2918 11.0069C44.3773 10.8914 44.4586 10.7801 44.5484 10.6689L44.8436 10.2881C45.0104 10.0871 45.1729 9.88598 45.3397 9.68918L45.8915 9.07312C46.0796 8.87204 46.2679 8.67524 46.4603 8.48272L46.7512 8.19609C46.9436 8.0164 47.1404 7.83244 47.3414 7.65275C47.5424 7.47307 47.7392 7.31049 47.9445 7.14364C48.1498 6.9768 48.3722 6.8185 48.5604 6.66449L48.8769 6.43774C48.9796 6.36074 49.0865 6.29229 49.1891 6.21956L49.5099 6.00992L49.835 5.80457C50.0446 5.67623 50.2627 5.55215 50.4851 5.43236L50.7974 5.26551C50.8071 5.26225 50.8176 5.26225 50.8273 5.26551L51.1438 5.10295C51.2507 5.06017 51.3534 5.00883 51.456 4.95749L51.8153 4.80775L52.1489 4.67513L52.4911 4.55106C52.6066 4.50827 52.7178 4.46977 52.8333 4.43555C53.0642 4.35854 53.2909 4.29009 53.5219 4.23447L53.8598 4.15319C54.1079 4.099 54.3559 4.05193 54.604 4.012C54.8008 3.98206 54.9975 3.96066 55.1943 3.93499L55.5535 3.90505H55.9128L138.851 1.29107H139.612C139.873 1.29107 140.13 1.29107 140.387 1.33813C140.519 1.33813 140.648 1.3638 140.772 1.38091C140.896 1.39803 141.032 1.41086 141.161 1.43225L141.537 1.49642L141.914 1.57343L142.281 1.66327L142.615 1.74884L142.688 1.77022C142.79 1.80445 142.897 1.8344 143 1.8729C143.103 1.91141 143.287 1.96703 143.428 2.02264L143.714 2.13387C143.928 2.21944 144.142 2.30928 144.352 2.41195C144.493 2.47185 144.63 2.54458 144.779 2.61731C144.929 2.69004 144.976 2.72426 145.079 2.77988C145.181 2.8355 145.293 2.90395 145.404 2.96812L145.72 3.16492C146.481 3.65502 147.184 4.22904 147.816 4.8762C147.899 4.95179 147.977 5.03176 148.051 5.11578C148.337 5.41262 148.606 5.72391 148.86 6.04843C148.975 6.18961 149.086 6.33934 149.189 6.47625C149.641 7.0907 150.043 7.74019 150.391 8.41855C150.459 8.54262 150.523 8.66241 150.579 8.78648C150.707 9.04317 150.827 9.30414 150.943 9.56939C151.003 9.70629 151.058 9.83892 151.109 9.97582C151.208 10.2068 151.298 10.4464 151.379 10.6817C151.422 10.8015 151.464 10.9256 151.503 11.0454C151.576 11.2764 151.653 11.5074 151.717 11.747C151.751 11.8582 151.785 11.9737 151.811 12.0935C151.922 12.4871 152.016 12.8893 152.097 13.3C152.123 13.4084 152.145 13.5153 152.162 13.6208C152.239 14.0487 152.303 14.4465 152.358 14.8658C152.38 15.0284 152.397 15.1824 152.41 15.3364C152.51 16.2627 152.551 17.1943 152.534 18.1258C152.538 18.2199 152.538 18.3226 152.534 18.4295V18.4295Z" fill="#C7C7C7"/>
<path d="M12.9189 290.365L12.6066 290.241C12.4013 290.155 12.1789 290.057 11.995 289.958C10.7435 289.322 9.60947 288.477 8.64172 287.46L8.43214 287.242C8.25678 287.045 8.08568 286.852 7.9146 286.647L7.68791 286.365C7.30051 285.875 6.94068 285.363 6.61007 284.833L6.43042 284.542C6.25506 284.247 6.08825 283.943 5.92572 283.635C5.87012 283.537 5.8188 283.434 5.76747 283.327L5.59211 282.968L5.4253 282.604C5.38681 282.527 5.34831 282.446 5.31409 282.365C5.27988 282.283 5.22428 282.159 5.18578 282.052C4.9263 281.436 4.69391 280.799 4.48861 280.14C4.45011 280.024 4.41589 279.905 4.38168 279.789C4.27047 279.421 4.17209 279.049 4.08227 278.673C4.04805 278.536 4.01383 278.399 3.98389 278.245C3.75356 277.211 3.58927 276.164 3.49202 275.109C3.49202 274.959 3.46208 274.814 3.45353 274.681C3.39793 273.945 3.37227 273.196 3.38082 272.444C3.38082 272.294 3.38082 272.14 3.38082 271.99C3.41132 270.915 3.50271 269.842 3.65456 268.777L39.2234 24.9196C40.6862 14.8829 47.6793 6.48909 55.0831 5.79602C48.4192 6.47625 42.1233 14.0615 40.8016 23.1099L4.66824 270.856C3.39365 279.61 7.01212 287.978 12.9189 290.365Z" fill="url(#paint2_linear_1_1227)"/>
<path d="M151.978 23.4694L112.628 293.424C112.321 295.553 111.746 297.634 110.917 299.619C110.857 299.764 110.797 299.91 110.733 300.047C110.669 300.183 110.605 300.329 110.536 300.474C110.468 300.62 110.438 300.688 110.387 300.791C110.233 301.103 110.074 301.411 109.912 301.711C109.835 301.843 109.762 301.98 109.69 302.109C109.617 302.237 109.476 302.472 109.364 302.652C109.253 302.832 109.219 302.892 109.142 303.007C109.065 303.123 108.984 303.255 108.898 303.379C108.672 303.717 108.436 304.051 108.188 304.372C108.111 304.475 108.034 304.577 107.953 304.676C107.872 304.774 107.773 304.898 107.679 305.009C107.585 305.121 107.495 305.232 107.405 305.334C107.316 305.437 107.217 305.548 107.123 305.651C107.029 305.754 106.931 305.861 106.832 305.963C106.641 306.169 106.445 306.366 106.242 306.554C105.934 306.849 105.622 307.127 105.297 307.409L105.006 307.64C104.784 307.816 104.578 307.983 104.33 308.15L104.031 308.351C103.701 308.573 103.364 308.778 103.021 308.967C102.91 309.031 102.795 309.091 102.679 309.151C102.448 309.275 102.217 309.386 101.982 309.493C101.867 309.544 101.751 309.6 101.636 309.643C101.264 309.807 100.882 309.95 100.494 310.07C100.391 310.109 100.293 310.135 100.19 310.165C100.087 310.194 99.9504 310.237 99.8264 310.267L99.4586 310.357C99.1848 310.417 98.9111 310.473 98.6331 310.515L98.3422 310.558C97.9786 310.609 97.6108 310.639 97.243 310.657H96.858H96.4303C96.178 310.657 95.9256 310.635 95.6733 310.614L95.2883 310.571C102.559 311.328 109.382 304.727 110.789 295.062L150.686 21.5313C152.119 11.6915 147.222 3.78537 139.719 3.26343C148.077 3.74259 153.573 12.53 151.978 23.4694Z" fill="url(#paint3_linear_1_1227)"/>
<path d="M112.607 293.415L112.316 295.396C110.648 306.836 102.149 314.379 93.4962 312.239L13.9411 292.585C6.59726 290.771 1.92232 280.906 3.42788 270.57L3.68879 268.781C3.53695 269.846 3.44555 270.919 3.41505 271.994C3.41505 272.144 3.41505 272.298 3.41505 272.448C3.41505 273.201 3.41506 273.95 3.48777 274.685C3.48777 274.831 3.48777 274.976 3.52626 275.113C3.62351 276.168 3.78779 277.215 4.01813 278.249C4.04807 278.386 4.08229 278.523 4.11651 278.677C4.20633 279.053 4.3047 279.426 4.4159 279.794C4.45012 279.909 4.48434 280.029 4.52283 280.144C4.72813 280.803 4.96053 281.441 5.22001 282.057C5.2585 282.164 5.30555 282.266 5.34832 282.369C5.39109 282.472 5.42103 282.532 5.45953 282.609L5.62634 282.972L5.8017 283.332C5.85302 283.439 5.90436 283.541 5.95996 283.64C6.12249 283.948 6.2893 284.251 6.46466 284.547L6.6443 284.838C6.97491 285.368 7.33475 285.879 7.72215 286.369L7.94884 286.652C8.11992 286.857 8.291 287.049 8.46637 287.246L8.67594 287.464C9.63633 288.478 10.7615 289.321 12.0036 289.959C12.2046 290.057 12.4099 290.155 12.6152 290.241C12.8248 290.327 13.0429 290.408 13.2482 290.485L13.5776 290.596C13.7829 290.66 14.0053 290.72 14.202 290.771L93.7871 310.289C94.0323 310.349 94.2761 310.4 94.5185 310.443L94.9077 310.507C95.1172 310.537 95.3354 310.562 95.5321 310.58H95.6775C95.9299 310.605 96.1823 310.618 96.4346 310.622H96.8623H97.2473C97.6151 310.622 97.9829 310.575 98.3465 310.524L98.6373 310.481C98.9153 310.438 99.1891 310.383 99.4628 310.323L99.8307 310.233C99.9547 310.203 100.074 310.169 100.194 310.13C100.314 310.092 100.395 310.075 100.498 310.036C100.887 309.916 101.268 309.773 101.64 309.608C101.755 309.566 101.871 309.514 101.986 309.459C102.222 309.352 102.453 309.24 102.684 309.116C102.799 309.061 102.914 308.997 103.026 308.932C103.368 308.74 103.706 308.539 104.035 308.316L104.335 308.115C104.561 307.948 104.788 307.782 105.01 307.606C105.109 307.533 105.203 307.456 105.301 307.375C105.626 307.106 105.938 306.828 106.246 306.52C106.447 306.331 106.648 306.134 106.837 305.929C106.935 305.826 107.033 305.724 107.127 305.617C107.222 305.51 107.32 305.411 107.41 305.3C107.5 305.189 107.598 305.086 107.684 304.975C107.769 304.864 107.867 304.757 107.957 304.641C108.047 304.526 108.116 304.44 108.193 304.338C108.441 304.017 108.676 303.683 108.903 303.345C108.988 303.22 109.069 303.096 109.146 302.973C109.223 302.857 109.296 302.738 109.369 302.618C109.441 302.498 109.587 302.258 109.694 302.074C109.801 301.891 109.844 301.813 109.916 301.677C110.079 301.377 110.237 301.069 110.391 300.757C110.442 300.654 110.494 300.547 110.541 300.44C110.588 300.333 110.673 300.158 110.737 300.012C110.802 299.867 110.861 299.726 110.921 299.585C111.739 297.607 112.306 295.534 112.607 293.415V293.415Z" fill="url(#paint4_linear_1_1227)"/>
<path d="M152.269 21.4885L151.978 23.4693C153.548 12.7011 148.252 4.01635 140.104 3.27622L139.715 3.24628H139.317C139.069 3.24628 138.826 3.24628 138.569 3.24628L55.7675 5.78753C55.5493 5.78753 55.3397 5.78753 55.1173 5.82603C47.7136 6.5191 40.7204 14.9129 39.2576 24.9496L39.5185 23.1613C39.5442 22.9759 39.5741 22.792 39.6084 22.6094C39.6084 22.4725 39.6511 22.3356 39.6768 22.1816C39.7324 21.8821 39.788 21.5827 39.8564 21.2875L39.9591 20.8254C39.9805 20.7441 39.9976 20.6671 40.019 20.5815C40.0403 20.496 40.066 20.389 40.0917 20.2906C40.1173 20.1922 40.1729 19.9826 40.2157 19.8286C40.2884 19.5591 40.3654 19.2938 40.4467 19.0286C40.4852 18.8959 40.5279 18.7676 40.5707 18.6392C40.6948 18.2457 40.8273 17.8649 40.9728 17.4841C41.0198 17.3643 41.0669 17.2445 41.1096 17.1248C41.1524 17.005 41.2251 16.8296 41.285 16.6969L41.439 16.3376C41.4818 16.2392 41.5203 16.1408 41.5673 16.0424L41.7213 15.6873C41.764 15.5974 41.8025 15.5119 41.8453 15.4263L42.0335 15.0413C42.1404 14.8145 42.2559 14.5921 42.3714 14.3696C42.4313 14.2584 42.4912 14.1471 42.5553 14.0359C42.6195 13.9247 42.6965 13.7749 42.7692 13.6466C43.2674 12.7654 43.8188 11.9153 44.4202 11.1011C44.5057 10.9898 44.587 10.8743 44.6768 10.7631C44.7666 10.6518 44.8693 10.5107 44.9719 10.3866C45.1344 10.1812 45.3013 9.98017 45.4681 9.78337L46.0198 9.16731C46.208 8.96623 46.3962 8.76943 46.5887 8.57691L46.8795 8.29455C47.072 8.10631 47.2687 7.92663 47.4698 7.74694C47.6708 7.56726 47.8676 7.40469 48.0729 7.23784C48.2782 7.07099 48.5006 6.91269 48.6888 6.75868L49.0053 6.53193C49.1079 6.45493 49.2149 6.38648 49.3175 6.31375L49.6383 6.10411L49.9633 5.89876C50.1772 5.77042 50.3911 5.64634 50.6135 5.52655L50.9257 5.35971H50.9557L51.2722 5.20569L51.5844 5.05596L51.9437 4.90622L52.2773 4.77359L52.6195 4.64953C52.7307 4.60675 52.8462 4.56824 52.9616 4.53402C53.1883 4.45701 53.4193 4.39283 53.6503 4.33294L53.9924 4.25165C54.2362 4.19604 54.4843 4.14897 54.7324 4.11047C54.9805 4.07197 55.1259 4.05486 55.3184 4.03347L55.6819 4.00352H56.0412L138.851 1.29114H139.613C139.873 1.29114 140.13 1.29114 140.387 1.33392L140.772 1.3767L141.157 1.43232C141.285 1.43232 141.413 1.4751 141.537 1.49649L141.909 1.5735L142.277 1.66334L142.611 1.75318H142.684C142.786 1.78741 142.893 1.81736 142.996 1.85586C143.098 1.89437 143.287 1.94998 143.423 2.0056L143.71 2.11683C143.924 2.20239 144.138 2.29652 144.343 2.39491C144.488 2.45481 144.625 2.52754 144.771 2.60027C144.916 2.673 144.972 2.70722 145.07 2.76284C145.169 2.81846 145.288 2.88263 145.395 2.95108L145.712 3.14788C146.473 3.63663 147.176 4.21078 147.808 4.85916C147.891 4.93364 147.97 5.01368 148.043 5.09873C148.325 5.39393 148.595 5.70624 148.851 6.03139C148.967 6.17684 149.078 6.3223 149.185 6.45921C149.634 7.07477 150.034 7.72414 150.382 8.40151C150.451 8.52557 150.511 8.64536 150.571 8.76943C150.703 9.0304 150.823 9.29137 150.934 9.55234C150.994 9.68497 151.05 9.82187 151.101 9.95877C151.199 10.1898 151.285 10.4294 151.37 10.6647C151.413 10.7887 151.452 10.9085 151.494 11.0283C151.567 11.2593 151.644 11.4904 151.708 11.7299C151.743 11.8455 151.777 11.9567 151.802 12.0765C151.914 12.4701 152.008 12.8722 152.093 13.2829C152.093 13.3899 152.132 13.4968 152.153 13.6038C152.23 14.0316 152.294 14.4295 152.346 14.853C152.346 15.0071 152.388 15.1611 152.401 15.3194C152.498 16.2459 152.541 17.1772 152.53 18.1087C152.53 18.2071 152.53 18.3098 152.53 18.4168C152.53 18.5237 152.53 18.7505 152.53 18.9173C152.53 19.0842 152.53 19.251 152.5 19.4222C152.47 19.5933 152.474 19.7644 152.461 19.9313C152.431 20.2479 152.397 20.5602 152.358 20.8767C152.33 21.085 152.3 21.2889 152.269 21.4885Z" fill="url(#paint5_linear_1_1227)"/>
<path d="M139.317 3.22913C139.074 3.22913 138.826 3.22913 138.569 3.22913L55.7675 5.77038C55.5493 5.77038 55.3397 5.77038 55.1173 5.80888C48.4193 6.47628 42.1233 14.0615 40.8017 23.1099L4.66829 270.856C3.38514 279.764 7.14048 288.273 13.2226 290.485L13.5519 290.596C13.7573 290.66 13.9797 290.72 14.1764 290.771L93.7614 310.289C94.0067 310.348 94.2504 310.4 94.4928 310.443L94.882 310.507C102.307 311.542 109.335 304.881 110.767 295.045L150.665 21.5142C152.14 11.5032 147.042 3.49437 139.317 3.22913ZM109.583 294.776C108.299 303.662 101.884 309.874 95.066 308.932C94.9462 308.932 94.8222 308.898 94.6981 308.872C94.4757 308.834 94.2704 308.787 94.0266 308.731L14.4288 289.33C14.232 289.283 14.0395 289.227 13.8471 289.167L13.5519 289.069C7.9446 287.045 4.51859 279.156 5.6948 271.1L41.8453 23.1099C43.0515 14.8402 48.7615 7.88381 54.9249 7.25919H54.9548C55.1515 7.25919 55.3526 7.22924 55.5536 7.22497L138.338 4.79495C138.569 4.79495 138.8 4.79495 139.027 4.79495C146.139 5.0602 150.725 12.4101 149.394 21.5313L109.583 294.776Z" fill="#404040"/>
<path d="M149.394 21.6425L109.544 294.878C109.303 296.509 108.873 298.106 108.261 299.636C107.813 300.778 107.253 301.873 106.589 302.904C106.456 303.11 106.315 303.311 106.161 303.503C105.947 303.799 105.733 304.081 105.506 304.359C104.892 305.111 104.205 305.801 103.458 306.421C105.098 303.874 106.167 301.002 106.589 298.002L107.046 294.857C107.08 294.673 107.11 294.485 107.136 294.297L146.914 21.6511C146.939 21.4585 146.965 21.266 146.986 21.0778L147.435 18.0018C147.91 15.0436 147.711 12.0165 146.854 9.14587C149.082 12.2133 150.121 16.6926 149.394 21.6425Z" fill="url(#paint6_linear_1_1227)"/>
<path d="M138.753 6.35657H138.697C138.505 6.35657 138.308 6.35657 138.111 6.35657L55.3397 8.67108C55.1644 8.67108 54.989 8.67107 54.8179 8.69674H54.7666H54.7409C49.1806 9.27002 43.9796 15.5847 42.8846 23.0843L6.68281 271.314C5.61352 278.647 8.72728 285.804 13.8214 287.635L14.0652 287.717H14.0951C14.2662 287.768 14.4416 287.819 14.6169 287.862L94.2362 307.183C94.4372 307.23 94.6382 307.268 94.8393 307.302H94.8777C94.9765 307.324 95.0765 307.34 95.1771 307.349C101.358 308.205 107.153 302.554 108.342 294.515L148.154 21.5656C149.36 13.2701 145.203 6.6047 138.753 6.35657ZM105.151 293.766C104.837 296.147 103.862 298.392 102.337 300.248C102.26 300.337 102.183 300.419 102.106 300.504C101.875 300.758 101.631 300.999 101.375 301.227C101.152 301.424 100.921 301.612 100.686 301.784C100.394 301.996 100.088 302.189 99.7708 302.361C99.4627 302.528 99.1424 302.671 98.8127 302.789V302.789C98.6502 302.853 98.4876 302.904 98.3208 302.956C98.1563 303.007 97.9893 303.05 97.8204 303.084C97.4808 303.157 97.1363 303.204 96.7896 303.225C96.3699 303.246 95.9492 303.23 95.5322 303.178H95.4167H95.3611H95.3226H95.2841H95.1771H95.0659L94.8435 303.131L15.173 284.08L14.9805 284.029L14.788 283.969H14.7624H14.7324H14.6854L14.587 283.931C10.8445 282.6 8.54764 277.346 9.33464 271.952L45.6306 23.0843C46.4304 17.6082 50.2029 13.0006 54.2704 12.5386H54.3389H54.4458C54.5583 12.5327 54.6711 12.5327 54.7837 12.5386L137.508 10.515H137.987C138.016 10.5107 138.044 10.5107 138.073 10.515C138.159 10.5177 138.244 10.5248 138.329 10.5364H138.445L138.672 10.5663C138.766 10.5663 138.855 10.592 138.945 10.6091C139.075 10.6296 139.203 10.6567 139.33 10.6904L139.403 10.7118L139.711 10.8016L140.139 10.9642C140.257 11.0071 140.373 11.0571 140.485 11.1139C140.61 11.1698 140.731 11.2327 140.849 11.3022C141.09 11.4276 141.321 11.5706 141.541 11.73C141.744 11.8773 141.938 12.0359 142.123 12.2049C142.162 12.2469 142.204 12.2869 142.247 12.3247L142.474 12.5471C142.572 12.6455 142.662 12.7525 142.756 12.8594C142.936 13.0776 143.111 13.2873 143.274 13.5397C143.361 13.6564 143.44 13.7794 143.509 13.9076C143.586 14.0331 143.659 14.1614 143.727 14.2926C144.021 14.8292 144.26 15.3939 144.441 15.9782C144.54 16.282 144.617 16.5943 144.689 16.9109C144.762 17.2275 144.818 17.5526 144.865 17.8906C144.886 18.0575 144.903 18.2243 144.92 18.3912C144.95 18.7634 144.972 19.1356 144.972 19.5163C144.972 19.6703 144.972 19.8201 144.972 19.9741C144.958 20.5269 144.911 21.0783 144.831 21.6255L105.151 293.766Z" fill="black"/>
<path d="M67.0677 17.0447C67.0677 16.9717 67.0377 16.9029 67.0249 16.8299C67.0233 16.8042 67.0233 16.7783 67.0249 16.7526C67.0292 16.8514 67.0463 16.9502 67.0677 17.0447Z" fill="black"/>
<path d="M122.199 15.636C122.185 15.6638 122.172 15.6923 122.161 15.7215C122.123 15.7943 122.089 15.8713 122.046 15.9483L122.199 15.636Z" fill="black"/>
<path d="M124.792 10.7673C124.065 10.8315 123.381 11.5545 123.175 12.4786C123.175 12.5599 123.145 12.6412 123.133 12.7225C123.073 13.0562 122.996 13.3899 122.906 13.7193C122.872 13.8348 122.842 13.946 122.808 14.0573C122.765 14.1942 122.722 14.3268 122.675 14.4594C122.628 14.592 122.589 14.699 122.547 14.8188L122.512 14.9044L122.478 14.9942C122.478 15.0199 122.478 15.0413 122.448 15.0669C122.43 15.1058 122.414 15.1458 122.401 15.1867C122.38 15.2295 122.363 15.2766 122.341 15.3193C122.299 15.4306 122.247 15.5375 122.2 15.6445L122.046 15.9568C122.049 15.971 122.049 15.9854 122.046 15.9996C122.003 16.0894 121.956 16.175 121.909 16.2606C121.862 16.3461 121.828 16.4103 121.785 16.483C121.774 16.5081 121.761 16.5324 121.747 16.5557L121.678 16.667C121.651 16.7184 121.621 16.7683 121.589 16.8167V16.8595C121.578 16.8793 121.565 16.8979 121.55 16.9151C121.529 16.9493 121.512 16.9836 121.49 17.0135C121.469 17.0435 121.443 17.0905 121.417 17.1247L121.358 17.2189L121.319 17.2702L121.246 17.3814C121.23 17.4074 121.212 17.4318 121.191 17.4542C121.169 17.4952 121.143 17.5339 121.114 17.5697V17.5953C121.114 17.5953 121.114 17.5953 121.114 17.6167L121.028 17.7365L120.994 17.7836L120.896 17.9119L120.767 18.0702C120.729 18.1267 120.686 18.1797 120.639 18.2285C120.614 18.263 120.587 18.2959 120.558 18.3269C120.527 18.3646 120.494 18.4003 120.459 18.4339C120.433 18.4711 120.403 18.5055 120.37 18.5365C120.317 18.5981 120.262 18.6567 120.203 18.712C120.163 18.7607 120.121 18.8064 120.074 18.8489L119.993 18.9301L119.801 19.1141L119.613 19.2852L119.497 19.3836C119.455 19.423 119.411 19.4601 119.364 19.4949L119.236 19.5975L119.176 19.6489L118.958 19.8115C118.903 19.857 118.844 19.8985 118.783 19.9355C118.713 19.9884 118.64 20.037 118.565 20.081L118.479 20.1409L118.317 20.2393C118.27 20.2703 118.221 20.2989 118.171 20.3248C118.128 20.3516 118.084 20.3759 118.039 20.3976L117.97 20.4361L117.91 20.466C117.795 20.5259 117.688 20.5815 117.572 20.6286C117.457 20.6757 117.363 20.7227 117.26 20.7612C117.157 20.7997 117.029 20.8511 116.918 20.8853C116.69 20.9619 116.457 21.0248 116.221 21.0735C116.127 21.0735 116.028 21.112 115.93 21.1249H115.87L115.622 21.1505L115.34 21.1762H115.143L72.0164 21.8393H71.9351C71.8496 21.8393 71.764 21.8393 71.6785 21.8393C71.6044 21.8434 71.5301 21.8434 71.456 21.8393H71.4047C71.3192 21.8393 71.2336 21.8137 71.1481 21.8008C70.9483 21.7583 70.7512 21.704 70.5579 21.6382C70.4595 21.6083 70.3697 21.5698 70.2713 21.5313L70.0189 21.4115C69.9291 21.3687 69.8436 21.3174 69.7537 21.266L69.7067 21.2361L69.6554 21.2019C69.6191 21.184 69.5847 21.1625 69.5527 21.1377L69.4415 21.0607L69.3218 20.9666C69.2998 20.952 69.2797 20.9347 69.2619 20.9152C69.2038 20.876 69.1494 20.8316 69.0993 20.7826C69.0539 20.7487 69.0123 20.71 68.9753 20.6671L68.817 20.5174C68.8022 20.5035 68.7892 20.4876 68.7786 20.4703C68.7441 20.4422 68.7125 20.4107 68.6845 20.3762V20.3762C68.6509 20.344 68.6195 20.3097 68.5904 20.2735L68.5134 20.1837L68.3893 20.0254L68.261 19.8542L68.2097 19.7815C68.1801 19.7404 68.153 19.6975 68.1284 19.6532C68.0893 19.6007 68.0549 19.5449 68.0258 19.4863C68.0038 19.4586 67.9852 19.4285 67.9702 19.3965C67.9488 19.3622 67.9274 19.3323 67.9103 19.2981C67.8921 19.268 67.8763 19.2365 67.8632 19.2039V19.2039C67.8471 19.1801 67.8341 19.1542 67.8247 19.1269C67.7863 19.0499 67.7478 18.9772 67.7135 18.9002C67.6931 18.8618 67.6759 18.8217 67.6622 18.7804C67.6526 18.7676 67.6453 18.7531 67.6408 18.7376C67.6408 18.7034 67.6109 18.6649 67.5938 18.6264V18.605C67.5956 18.5965 67.5956 18.5878 67.5938 18.5793C67.5766 18.5469 67.5637 18.5124 67.5553 18.4767C67.5428 18.4535 67.5327 18.4292 67.5254 18.4039C67.5254 18.3754 67.5125 18.3412 67.4868 18.3012C67.4844 18.2857 67.4844 18.2698 67.4868 18.2542C67.4736 18.2264 67.4622 18.1979 67.4526 18.1686C67.4526 18.1344 67.4313 18.1002 67.4184 18.0617C67.4056 18.0232 67.4184 18.0061 67.3885 17.9718C67.3898 17.9533 67.3898 17.9347 67.3885 17.9162C67.3885 17.9162 67.3885 17.8905 67.3885 17.8777C67.3711 17.8317 67.3568 17.7845 67.3457 17.7365C67.3457 17.7023 67.3243 17.6724 67.3158 17.6338C67.3177 17.6111 67.3177 17.5882 67.3158 17.5654C67.3158 17.5012 67.2815 17.4285 67.2644 17.3558C67.2473 17.283 67.2259 17.1975 67.2088 17.1162V17.0948C67.2064 17.0806 67.2064 17.0662 67.2088 17.052C67.1874 16.9579 67.1703 16.8595 67.1575 16.7611C67.1447 16.6627 67.1233 16.56 67.1147 16.4531C67.1127 16.4117 67.1127 16.3703 67.1147 16.329V16.2135C67.1123 16.1922 67.1123 16.1706 67.1147 16.1493V16.0637C67.1147 16.0381 67.1147 16.0081 67.1147 15.9867C67.1147 15.8712 67.1147 15.76 67.0934 15.6445C67.072 15.529 67.0934 15.3921 67.0934 15.2637C67.0934 15.1611 67.0934 15.0541 67.0934 14.9429C67.098 14.6282 67.1194 14.314 67.1575 14.0017C67.1621 13.9228 67.1706 13.8443 67.1832 13.7664C67.2431 12.9107 66.8153 12.2476 66.178 12.2176L124.792 10.7673Z" fill="black"/>
<path d="M71.6571 21.8693C71.7426 21.8693 71.8282 21.8693 71.9137 21.8693H71.7683H71.6186H71.4518C71.5202 21.8727 71.5887 21.8727 71.6571 21.8693Z" fill="black"/>
<path d="M115.742 21.1676H115.558C115.502 21.174 115.446 21.174 115.391 21.1676H115.233L115.515 21.142L115.742 21.1676Z" fill="black"/>
<path d="M66.9736 16.443C66.9757 16.4064 66.9757 16.3698 66.9736 16.3333C66.9719 16.3698 66.9719 16.4064 66.9736 16.443V16.443Z" fill="black"/>
<path d="M67.0677 17.0447C67.0677 16.9717 67.0377 16.9029 67.0249 16.8299C67.0233 16.8042 67.0233 16.7783 67.0249 16.7526C67.0292 16.8514 67.0463 16.9502 67.0677 17.0447Z" fill="black"/>
<path d="M67.589 18.7285C67.5678 18.6902 67.5508 18.6433 67.5296 18.5964V18.6177C67.5593 18.6561 67.572 18.6944 67.589 18.7285Z" fill="black"/>
<path d="M67.7771 19.1184C67.7497 19.0731 67.7255 19.0259 67.7047 18.9772C67.6889 18.9495 67.6746 18.921 67.6622 18.8916C67.7005 18.9686 67.7388 19.0414 67.7771 19.1184Z" fill="black"/>
<path d="M67.8672 19.2891C67.8469 19.2598 67.8298 19.2284 67.8162 19.1954C67.8305 19.228 67.8476 19.2594 67.8672 19.2891V19.2891Z" fill="black"/>
<path d="M68.4706 20.1751C68.4278 20.1281 68.3851 20.0724 68.3466 20.0211C68.3189 19.9894 68.2946 19.955 68.2739 19.9184C68.253 19.8961 68.2344 19.8717 68.2183 19.8457L68.3466 20.0168L68.4706 20.1751Z" fill="black"/>
<path d="M68.5476 20.2649C68.5761 20.3006 68.607 20.3344 68.6399 20.3661L68.6105 20.3408L68.5476 20.2649Z" fill="black"/>
<path d="M68.9466 20.6606L68.8543 20.5805L68.7957 20.5173L68.9466 20.6606Z" fill="black"/>
<path d="M69.9987 21.3993C69.9257 21.3606 69.8483 21.3262 69.7753 21.279L69.7324 21.2532C69.8054 21.3219 69.9085 21.3735 69.9987 21.3993Z" fill="black"/>
<path d="M70.2328 21.5356C70.3311 21.5741 70.421 21.6126 70.5193 21.6425C70.4537 21.6242 70.3893 21.6013 70.3269 21.5741L70.2328 21.5398L70.1087 21.4799C70.0643 21.462 70.0214 21.4406 69.9804 21.4158L70.2328 21.5356Z" fill="black"/>
<path d="M71.1267 21.8265C71.2122 21.8265 71.2978 21.8564 71.3833 21.865C71.3069 21.8602 71.2311 21.8487 71.1566 21.8308C71.1566 21.8308 71.1352 21.8308 71.1267 21.8308L71.0283 21.8051C70.9603 21.794 70.8932 21.7782 70.8273 21.758L70.5749 21.681H70.5364C70.7302 21.741 70.9273 21.7895 71.1267 21.8265V21.8265Z" fill="black"/>
<path d="M71.6553 21.8693H71.5578H71.4518C71.5196 21.8727 71.5875 21.8727 71.6553 21.8693Z" fill="black"/>
<path d="M115.143 21.2233H115.053L72.0976 21.8864H72.0164L115.143 21.2233Z" fill="black"/>
<path d="M115.494 21.1934L115.743 21.1676H115.623H115.515L115.494 21.1934Z" fill="black"/>
<path d="M116.092 21.1078C116.328 21.0591 116.561 20.9962 116.79 20.9196L116.738 20.9409L116.439 21.0265C116.363 21.0511 116.286 21.0697 116.208 21.0821L116.092 21.1121H116.058C115.973 21.1121 115.887 21.1463 115.802 21.1549C115.9 21.1463 115.998 21.1249 116.092 21.1078Z" fill="black"/>
<path d="M117.444 20.6628C117.392 20.6914 117.338 20.7157 117.281 20.7356L117.132 20.7997L117.016 20.8425L116.79 20.9195C116.901 20.8853 117.016 20.8425 117.132 20.7955C117.247 20.7484 117.337 20.7099 117.444 20.6628Z" fill="black"/>
<path d="M117.444 20.6628C117.559 20.6158 117.666 20.5601 117.782 20.5002L117.709 20.543C117.623 20.5875 117.534 20.6275 117.444 20.6628V20.6628Z" fill="black"/>
<path d="M118.851 19.8365L119.067 19.6746L118.987 19.7427L118.851 19.8365Z" fill="black"/>
<path d="M119.393 19.405L119.3 19.4902L119.262 19.5158C119.307 19.4812 119.351 19.4442 119.393 19.405V19.405Z" fill="black"/>
<path d="M119.891 18.9515L119.809 19.0328L119.698 19.1398C119.634 19.1954 119.574 19.2553 119.51 19.3066L119.698 19.1355L119.891 18.9515Z" fill="black"/>
<path d="M120.539 18.2499C120.513 18.2841 120.485 18.3165 120.455 18.3468C120.484 18.3163 120.51 18.2839 120.535 18.2499H120.539Z" fill="black"/>
<path d="M120.803 17.9248L120.732 18.0133L120.673 18.0807L120.799 17.9248H120.803Z" fill="black"/>
<path d="M121.044 17.6082L120.938 17.7481L121.023 17.6294C121.023 17.6294 121.035 17.6166 121.044 17.6082Z" fill="black"/>
<path d="M122.199 15.636C122.185 15.6638 122.172 15.6923 122.161 15.7215C122.123 15.7943 122.089 15.8713 122.046 15.9483L122.199 15.636Z" fill="black"/>
<path d="M122.414 15.1782L122.363 15.298C122.363 15.2681 122.38 15.221 122.414 15.1782Z" fill="black"/>
<path d="M107.016 294.857L106.589 298.002C106.175 300.995 105.119 303.863 103.492 306.408C101.033 308.432 98.0813 309.403 95.0574 309.009C94.9337 308.995 94.8109 308.973 94.6896 308.945C94.4671 308.911 94.2618 308.864 94.018 308.808L14.3988 289.398C14.2063 289.351 14.0096 289.295 13.8214 289.236L13.522 289.137C13.3851 289.086 13.2426 289.03 13.0943 288.97C10.7718 287.999 8.85134 286.006 7.53398 283.409C6.89486 280.638 6.78025 277.772 7.19608 274.959L7.68368 271.609C7.12765 275.434 7.83765 279.207 9.42447 282.014C10.5708 284.05 12.1832 285.582 14.108 286.271C14.1683 286.299 14.2314 286.32 14.2962 286.335H14.3218H14.3518C14.5057 286.386 14.664 286.429 14.8223 286.468L94.4586 305.685C94.634 305.728 94.8179 305.762 94.9975 305.792H95.036H95.0659C95.1476 305.811 95.2305 305.824 95.314 305.831C100.708 306.579 105.793 301.792 107.016 294.857Z" fill="url(#paint7_linear_1_1227)"/>
<path d="M149.407 21.5612V21.5312C150.737 12.4101 146.152 5.06017 139.039 4.79492C138.817 4.79492 138.586 4.79492 138.351 4.79492L55.5664 7.22494C55.3654 7.22494 55.1643 7.22494 54.9676 7.25916H54.9377C54.6853 7.28483 54.433 7.31906 54.1849 7.36612C51.6443 7.83672 49.2148 9.35976 47.1832 11.5759C45.7806 14.1036 44.8488 16.865 44.433 19.7258L43.9454 23.08C44.4518 19.4223 46.0843 16.0131 48.616 13.3257C50.3611 11.5502 52.4313 10.3823 54.5741 10.1555H54.6254H54.6981C54.8607 10.1555 55.0061 10.1341 55.1259 10.1341L137.88 7.92656H138.458C144.095 8.15331 147.778 13.8476 146.965 21.0008L147.414 17.9247C147.884 14.9678 147.685 11.943 146.832 9.07312C149.095 12.1278 150.134 16.5899 149.407 21.5612Z" fill="url(#paint8_linear_1_1227)"/>
<path d="M7.53827 283.344C5.78036 279.96 5.02329 275.554 5.67342 271.083L41.8453 23.11C42.44 18.8186 44.2914 14.7994 47.1661 11.5588C45.7668 14.0876 44.8365 16.8487 44.4202 19.7088L7.20892 274.882C6.78815 277.699 6.89987 280.569 7.53827 283.344V283.344Z" fill="url(#paint9_linear_1_1227)"/>
<path d="M149.411 21.5697L109.583 294.806C109.342 296.438 108.911 298.036 108.299 299.567C107.846 300.707 107.281 301.798 106.614 302.827C106.482 303.033 106.34 303.229 106.187 303.426C105.977 303.721 105.759 304.004 105.532 304.282C104.916 305.047 104.222 305.747 103.462 306.37V306.344C105.099 303.798 106.166 300.927 106.589 297.929L147.427 17.929C147.897 14.9721 147.699 11.9472 146.845 9.07739C149.099 12.1406 150.139 16.5985 149.411 21.5697Z" fill="url(#paint10_linear_1_1227)"/>
<path d="M100.241 14.3567L88.1669 14.6177C87.8632 14.6177 87.6664 14.3096 87.7391 13.9118L87.7905 13.5438C87.8026 13.3671 87.873 13.1994 87.9906 13.067C88.1083 12.9346 88.2666 12.845 88.4406 12.8123L100.519 12.5299C100.827 12.5299 101.033 12.8422 100.973 13.2444L100.917 13.6166C100.904 13.798 100.83 13.9697 100.708 14.104C100.585 14.2383 100.421 14.3273 100.241 14.3567V14.3567Z" fill="url(#paint11_linear_1_1227)"/>
<path d="M144.852 21.5997L105.151 293.766C104.837 296.147 103.862 298.392 102.337 300.248C102.26 300.337 102.183 300.419 102.106 300.504C101.867 300.761 101.627 301.005 101.375 301.227C101.122 301.45 100.921 301.612 100.686 301.783C100.394 301.996 100.088 302.189 99.7708 302.361C99.4614 302.525 99.1413 302.668 98.8127 302.789C98.6502 302.849 98.4876 302.9 98.3208 302.956C98.1583 303.007 97.9872 303.045 97.8204 303.084C97.4804 303.155 97.136 303.202 96.7896 303.225C96.3699 303.246 95.9492 303.23 95.5321 303.178H95.4166H95.361H95.3054L95.1899 303.152H95.0788L94.8563 303.105L15.1729 284.08L14.9805 284.029L14.788 283.973H14.7367H14.711L14.6126 283.935C10.8701 282.604 8.57328 277.351 9.36028 271.956L45.6562 23.0885C46.4561 17.6124 50.2285 13.0048 54.2961 12.5427H54.3645H54.4714C54.584 12.5369 54.6968 12.5369 54.8093 12.5427L66.0069 12.2689C66.6442 12.2989 67.0719 12.9577 67.0121 13.8177C67.0121 13.8775 67.0121 13.9374 66.9907 13.9973V14.023C66.9907 14.023 66.9907 14.023 66.9907 14.053C66.9526 14.3653 66.9311 14.6795 66.9265 14.9942C66.9265 15.1054 66.9265 15.2123 66.9265 15.315C66.9265 15.4434 66.9265 15.5717 66.9265 15.6958C66.9265 15.8198 66.9265 15.9225 66.9479 16.038C66.9479 16.038 66.9479 16.0894 66.9479 16.115V16.2006C66.9455 16.2219 66.9455 16.2435 66.9479 16.2648V16.3803C66.95 16.4173 66.95 16.4545 66.9479 16.4915V16.4915C66.9479 16.5985 66.9736 16.6969 66.9907 16.7996C67.0078 16.9022 67.0206 16.9964 67.042 17.0905C67.0396 17.1046 67.0396 17.1191 67.042 17.1333V17.1204C67.042 17.2017 67.0805 17.283 67.0976 17.36C67.1147 17.437 67.1318 17.5055 67.1489 17.5696C67.1509 17.5924 67.1509 17.6153 67.1489 17.6381C67.1489 17.6766 67.1489 17.7065 67.1789 17.7408C67.1899 17.7887 67.2042 17.8359 67.2216 17.8819C67.2216 17.8819 67.2216 17.9076 67.2216 17.9204C67.2229 17.939 67.2229 17.9575 67.2216 17.9761C67.2216 18.0103 67.243 18.0402 67.2516 18.0659C67.2601 18.0916 67.273 18.1386 67.2858 18.1729C67.2953 18.2021 67.3068 18.2307 67.32 18.2584C67.3176 18.274 67.3176 18.2899 67.32 18.3055C67.32 18.3426 67.3328 18.3768 67.3585 18.4082C67.3659 18.4334 67.3759 18.4578 67.3884 18.4809C67.3968 18.5166 67.4098 18.5511 67.4269 18.5836C67.4288 18.592 67.4288 18.6008 67.4269 18.6092V18.6306C67.4269 18.6691 67.4569 18.7076 67.474 18.7419C67.4785 18.7573 67.4857 18.7718 67.4954 18.7846C67.5091 18.8259 67.5263 18.866 67.5467 18.9044V18.9044C67.5569 18.9341 67.5698 18.9627 67.5852 18.99C67.606 19.0387 67.6303 19.0859 67.6579 19.1312C67.6673 19.1584 67.6802 19.1843 67.6964 19.2082C67.7095 19.2408 67.7252 19.2723 67.7434 19.3023C67.7434 19.3365 67.7819 19.3665 67.8033 19.4007C67.8183 19.4327 67.837 19.4628 67.8589 19.4905C67.8881 19.5491 67.9224 19.605 67.9616 19.6574C67.9861 19.7017 68.0132 19.7446 68.0428 19.7857L68.0942 19.8585C68.1103 19.8845 68.1289 19.9088 68.1498 19.9312C68.1716 19.9657 68.1959 19.9986 68.2225 20.0296C68.261 20.0809 68.3038 20.1366 68.3465 20.1836L68.4235 20.2735L68.4877 20.3505L68.5176 20.3761C68.5457 20.4106 68.5772 20.4422 68.6117 20.4703C68.6224 20.4876 68.6353 20.5034 68.6502 20.5173L68.7101 20.5815L68.8042 20.6628C68.8412 20.7057 68.8828 20.7444 68.9282 20.7783C68.9783 20.8273 69.0327 20.8717 69.0907 20.9109C69.1085 20.9304 69.1286 20.9477 69.1506 20.9622L69.2704 21.0564L69.3816 21.1334C69.4136 21.1582 69.4479 21.1797 69.4842 21.1975C69.4989 21.2123 69.5163 21.2239 69.5356 21.2318L69.5826 21.2617C69.5968 21.2728 69.6127 21.2814 69.6297 21.2874C69.7024 21.3345 69.7794 21.3687 69.8521 21.4072C69.8931 21.432 69.936 21.4534 69.9804 21.4714L70.1044 21.527L70.1985 21.5612C70.261 21.5885 70.3253 21.6113 70.391 21.6296H70.4295L70.6818 21.7067C70.7477 21.7269 70.8149 21.7426 70.8829 21.7537H70.9813C70.9813 21.7537 70.9813 21.7537 71.0112 21.7537C71.0856 21.7717 71.1615 21.7831 71.2379 21.7879H71.2892H71.3961H71.456H71.6057C71.6811 21.7944 71.757 21.7944 71.8324 21.7879H71.9137L114.869 21.1248H115.143C115.225 21.1312 115.308 21.1312 115.391 21.1248C115.446 21.1311 115.502 21.1311 115.558 21.1248H115.622H115.742H115.802C115.887 21.1248 115.973 21.0991 116.058 21.082H116.092L116.208 21.0564C116.286 21.0439 116.363 21.0253 116.439 21.0008L116.738 20.9152L116.79 20.8938L117.016 20.8168L117.132 20.774C117.183 20.7578 117.233 20.7377 117.281 20.7141C117.337 20.6943 117.392 20.6699 117.444 20.6414C117.534 20.6131 117.622 20.5802 117.709 20.543C117.73 20.5356 117.75 20.5255 117.769 20.513L117.829 20.4831L117.897 20.4446C117.943 20.4229 117.987 20.3986 118.03 20.3719C118.08 20.3459 118.128 20.3173 118.175 20.2863L118.338 20.1879L118.423 20.128C118.499 20.084 118.572 20.0354 118.642 19.9825C118.703 19.9455 118.762 19.9041 118.817 19.8585L118.945 19.7686L119.027 19.7002L119.086 19.6488L119.215 19.5462L119.253 19.5205L119.347 19.4349L119.463 19.3365C119.527 19.2852 119.587 19.2253 119.651 19.1697L119.762 19.067L119.843 18.9857L119.925 18.9044C119.971 18.862 120.014 18.8162 120.053 18.7675C120.112 18.7123 120.168 18.6537 120.22 18.5921C120.253 18.561 120.283 18.5266 120.31 18.4894C120.345 18.4559 120.378 18.4202 120.408 18.3825C120.437 18.3515 120.464 18.3186 120.489 18.2841V18.2841C120.537 18.2352 120.58 18.1823 120.618 18.1258L120.678 18.0574C120.703 18.0293 120.726 17.9992 120.746 17.9675V17.9675L120.844 17.8392L120.879 17.7921L120.964 17.6723C120.964 17.6723 120.964 17.6723 120.964 17.6509V17.6252C120.994 17.5895 121.019 17.5508 121.041 17.5097C121.062 17.4874 121.081 17.463 121.097 17.437L121.169 17.3258L121.208 17.2744L121.268 17.1803C121.293 17.1461 121.315 17.1076 121.34 17.0691C121.366 17.0306 121.379 17.0049 121.4 16.9707C121.415 16.9535 121.428 16.9349 121.439 16.9151V16.8723C121.471 16.8239 121.501 16.7739 121.529 16.7226L121.597 16.6113C121.612 16.5879 121.624 16.5636 121.636 16.5386C121.678 16.4659 121.721 16.3931 121.76 16.3161C121.798 16.2391 121.854 16.145 121.896 16.0551C121.899 16.041 121.899 16.0265 121.896 16.0124L122.05 15.7001C122.098 15.5931 122.149 15.4861 122.192 15.3749L122.243 15.2551C122.256 15.2142 122.272 15.1742 122.29 15.1353C122.29 15.1097 122.29 15.0883 122.32 15.0626L122.354 14.9728L122.388 14.8872C122.431 14.7674 122.478 14.6476 122.517 14.5278C122.555 14.408 122.607 14.2626 122.649 14.1257C122.683 14.0144 122.713 13.9032 122.748 13.7877C122.837 13.4583 122.914 13.1246 122.974 12.7909C122.976 12.7796 122.976 12.768 122.974 12.7567V12.731C122.974 12.6711 122.974 12.6069 123.004 12.547C123.21 11.6358 123.894 10.9128 124.621 10.8357L137.337 10.5234H137.927C138.005 10.5263 138.082 10.5335 138.158 10.5448H138.274L138.5 10.5748L138.774 10.6176L139.159 10.6988L139.232 10.7202L139.54 10.8101L139.967 10.9726L140.314 11.1224C140.438 11.1823 140.562 11.2465 140.677 11.3106C140.916 11.4402 141.148 11.583 141.37 11.7384C141.567 11.8882 141.764 12.0422 141.952 12.2133C141.991 12.2554 142.033 12.2954 142.076 12.3331L142.303 12.5556L142.585 12.8679C142.765 13.0861 142.94 13.2957 143.103 13.5481C143.184 13.6679 143.265 13.792 143.338 13.916C143.411 14.0401 143.488 14.1685 143.556 14.3011C143.846 14.8398 144.085 15.404 144.27 15.9867C144.369 16.2905 144.446 16.6028 144.518 16.9193C144.591 17.2359 144.647 17.5611 144.694 17.8991C144.715 18.0659 144.732 18.2328 144.749 18.3996C144.779 18.7718 144.801 19.144 144.801 19.5248C144.801 19.6745 144.801 19.8285 144.801 19.9825C144.849 20.5201 144.866 21.0601 144.852 21.5997V21.5997Z" fill="url(#paint12_linear_1_1227)"/>
</g>
<defs>
<linearGradient id="paint0_linear_1_1227" x1="99.45" y1="157.035" x2="162.316" y2="157.035" gradientUnits="userSpaceOnUse">
<stop stop-color="#333333"/>
<stop offset="0.37" stop-color="#848484"/>
<stop offset="0.66" stop-color="#BFBFBF"/>
<stop offset="0.88" stop-color="#E3E3E3"/>
<stop offset="1" stop-color="#F1F1F1"/>
</linearGradient>
<linearGradient id="paint1_linear_1_1227" x1="77.474" y1="312.963" x2="81.7377" y2="-0.137892" gradientUnits="userSpaceOnUse">
<stop stop-color="#F1F1F1"/>
<stop offset="0.43" stop-color="#EFEFEF"/>
<stop offset="0.62" stop-color="#E8E8E8"/>
<stop offset="0.76" stop-color="#DBDBDB"/>
<stop offset="0.88" stop-color="#C9C9C9"/>
<stop offset="0.98" stop-color="#B2B2B2"/>
<stop offset="1" stop-color="#ACACAC"/>
</linearGradient>
<linearGradient id="paint2_linear_1_1227" x1="21.8559" y1="145.685" x2="23.4353" y2="145.908" gradientUnits="userSpaceOnUse">
<stop stop-color="#666666"/>
<stop offset="0.06" stop-color="#727272"/>
<stop offset="0.33" stop-color="#A8A8A8"/>
<stop offset="0.57" stop-color="#D0D0D0"/>
<stop offset="0.76" stop-color="#E8E8E8"/>
<stop offset="0.87" stop-color="#F1F1F1"/>
<stop offset="0.95" stop-color="#F7F7F7"/>
<stop offset="1" stop-color="white"/>
</linearGradient>
<linearGradient id="paint3_linear_1_1227" x1="131.762" y1="158.099" x2="133.578" y2="158.356" gradientUnits="userSpaceOnUse">
<stop stop-color="white"/>
<stop offset="0.05" stop-color="#F7F7F7"/>
<stop offset="0.13" stop-color="#F1F1F1"/>
<stop offset="0.24" stop-color="#E8E8E8"/>
<stop offset="0.43" stop-color="#D0D0D0"/>
<stop offset="0.67" stop-color="#A8A8A8"/>
<stop offset="0.94" stop-color="#727272"/>
<stop offset="1" stop-color="#666666"/>
</linearGradient>
<linearGradient id="paint4_linear_1_1227" x1="55.3807" y1="306.098" x2="58.7883" y2="282.007" gradientUnits="userSpaceOnUse">
<stop stop-color="#F1F1F1"/>
<stop offset="0.12" stop-color="#E3E3E3"/>
<stop offset="0.34" stop-color="#BFBFBF"/>
<stop offset="0.63" stop-color="#848484"/>
<stop offset="1" stop-color="#333333"/>
</linearGradient>
<linearGradient id="paint5_linear_1_1227" x1="96.1387" y1="23.3699" x2="101.419" y2="-13.9565" gradientUnits="userSpaceOnUse">
<stop stop-color="#333333"/>
<stop offset="0.07" stop-color="#4C4C4C"/>
<stop offset="0.25" stop-color="#828282"/>
<stop offset="0.42" stop-color="#AFAFAF"/>
<stop offset="0.59" stop-color="#D2D2D2"/>
<stop offset="0.74" stop-color="#EBEBEB"/>
<stop offset="0.89" stop-color="#FAFAFA"/>
<stop offset="1" stop-color="white"/>
</linearGradient>
<linearGradient id="paint6_linear_1_1227" x1="125.395" y1="156.999" x2="130.544" y2="157.727" gradientUnits="userSpaceOnUse">
<stop stop-color="#F0F0F0"/>
<stop offset="0.14" stop-color="#B7B7B7"/>
<stop offset="0.27" stop-color="#888888"/>
<stop offset="0.4" stop-color="#636363"/>
<stop offset="0.51" stop-color="#494949"/>
<stop offset="0.62" stop-color="#393939"/>
<stop offset="0.7" stop-color="#333333"/>
</linearGradient>
<linearGradient id="paint7_linear_1_1227" x1="6.80186" y1="283.264" x2="107.433" y2="297.491" gradientUnits="userSpaceOnUse">
<stop/>
<stop offset="0.1" stop-color="#141414"/>
<stop offset="0.26" stop-color="#2C2C2C"/>
<stop offset="0.4" stop-color="#3B3B3B"/>
<stop offset="0.52" stop-color="#404040"/>
<stop offset="0.63" stop-color="#393939"/>
<stop offset="0.79" stop-color="#242424"/>
<stop offset="0.99" stop-color="#020202"/>
<stop offset="1"/>
</linearGradient>
<linearGradient id="paint8_linear_1_1227" x1="46.6507" y1="6.84397" x2="149.822" y2="21.4303" gradientUnits="userSpaceOnUse">
<stop/>
<stop offset="0.1" stop-color="#141414"/>
<stop offset="0.26" stop-color="#2C2C2C"/>
<stop offset="0.4" stop-color="#3B3B3B"/>
<stop offset="0.52" stop-color="#404040"/>
<stop offset="0.63" stop-color="#393939"/>
<stop offset="0.79" stop-color="#242424"/>
<stop offset="0.99" stop-color="#020202"/>
<stop offset="1"/>
</linearGradient>
<linearGradient id="paint9_linear_1_1227" x1="24.0891" y1="146.325" x2="26.6594" y2="146.688" gradientUnits="userSpaceOnUse">
<stop stop-color="#404040"/>
<stop offset="0.64" stop-color="#1A1A1A"/>
<stop offset="1" stop-color="#0A0A0A"/>
</linearGradient>
<linearGradient id="paint10_linear_1_1227" x1="125.394" y1="156.943" x2="130.56" y2="157.674" gradientUnits="userSpaceOnUse">
<stop stop-color="#0A0A0A"/>
<stop offset="0.36" stop-color="#1A1A1A"/>
<stop offset="1" stop-color="#404040"/>
</linearGradient>
<linearGradient id="paint11_linear_1_1227" x1="88.3904" y1="12.0049" x2="101.267" y2="13.8255" gradientUnits="userSpaceOnUse">
<stop stop-color="#333333"/>
<stop offset="0.09" stop-color="#2B2B2B"/>
<stop offset="0.29" stop-color="#1E1E1E"/>
<stop offset="0.48" stop-color="#1A1A1A"/>
<stop offset="0.79" stop-color="#1C1C1C"/>
<stop offset="0.9" stop-color="#232323"/>
<stop offset="0.98" stop-color="#2E2E2E"/>
<stop offset="1" stop-color="#333333"/>
</linearGradient>
<linearGradient id="paint12_linear_1_1227" x1="4.25661" y1="48.7143" x2="160.683" y2="256.618" gradientUnits="userSpaceOnUse">
<stop stop-color="#F2F3F4"/>
<stop offset="0.36" stop-color="#EDEEEF"/>
<stop offset="0.78" stop-color="#DFE0E0"/>
<stop offset="1" stop-color="#D5D6D6"/>
</linearGradient>
<clipPath id="clip0_1_1227">
<rect width="161.925" height="312.698" fill="white" transform="translate(0.391113 0.666504)"/>
</clipPath>
</defs>
</svg>
