<svg width="10" height="10" viewBox="0 0 10 10" fill="none" xmlns="http://www.w3.org/2000/svg">
<path fill-rule="evenodd" clip-rule="evenodd" d="M1.45831 4.29898C1.45831 2.38237 3.05993 0.833252 4.99725 0.833252C6.94003 0.833252 8.54165 2.38237 8.54165 4.29898C8.54165 5.26479 8.1904 6.16143 7.61227 6.92141C6.97448 7.75972 6.18838 8.49011 5.30354 9.06343C5.10103 9.19593 4.91826 9.20593 4.696 9.06343C3.80612 8.49011 3.02002 7.75972 2.38769 6.92141C1.80914 6.16143 1.45831 5.26479 1.45831 4.29898ZM3.83091 4.4069C3.83091 5.04896 4.35484 5.55395 4.99725 5.55395C5.64008 5.55395 6.16905 5.04896 6.16905 4.4069C6.16905 3.76983 5.64008 3.24027 4.99725 3.24027C4.35484 3.24027 3.83091 3.76983 3.83091 4.4069Z" fill="#42A7C3"/>
</svg>
