<svg width="38" height="37" viewBox="0 0 38 37" fill="none" xmlns="http://www.w3.org/2000/svg">
<path d="M19.2604 0.635498C9.04527 0.635498 0.762497 8.61953 0.762497 18.4662C0.762497 28.313 9.04527 36.297 19.2604 36.297C29.4756 36.297 37.7583 28.313 37.7583 18.4662C37.7583 8.61953 29.4756 0.635498 19.2604 0.635498ZM28.1501 14.0762C28.1625 14.2633 28.1625 14.4583 28.1625 14.6494C28.1625 20.4921 23.5463 27.2224 15.1108 27.2224C12.5095 27.2224 10.0982 26.4941 8.0667 25.2403C8.43831 25.2801 8.7934 25.2961 9.17327 25.2961C11.3203 25.2961 13.294 24.5956 14.8672 23.4095C12.8522 23.3697 11.1593 22.0961 10.5813 20.3448C11.2873 20.4443 11.9232 20.4443 12.6499 20.2652C11.6124 20.0621 10.6798 19.5189 10.0107 18.7281C9.34156 17.9372 8.97709 16.9475 8.97921 15.927V15.8712C9.58617 16.2016 10.3005 16.4046 11.0478 16.4324C10.4196 16.0288 9.90434 15.482 9.54781 14.8405C9.19129 14.199 9.00449 13.4826 9.00398 12.7548C9.00398 11.931 9.22695 11.1787 9.62746 10.526C10.779 11.8925 12.2161 13.0101 13.8451 13.8062C15.4741 14.6023 17.2587 15.0591 19.0829 15.1469C18.4346 12.1419 20.7634 9.71008 23.5628 9.71008C24.8841 9.71008 26.0733 10.2434 26.9114 11.1031C27.9478 10.916 28.9388 10.5419 29.8224 10.0404C29.4797 11.0633 28.7612 11.927 27.8074 12.4723C28.7323 12.3767 29.6242 12.13 30.45 11.7837C29.8265 12.6673 29.0461 13.4514 28.1501 14.0762Z" fill="#3FA0BB"/>
</svg>
