<svg width="38" height="37" viewBox="0 0 38 37" fill="none" xmlns="http://www.w3.org/2000/svg">
<path d="M19.1771 0.635498C8.96084 0.635498 0.679169 8.61847 0.679169 18.4662C0.679169 28.314 8.96084 36.297 19.1771 36.297C29.3933 36.297 37.675 28.314 37.675 18.4662C37.675 8.61847 29.3933 0.635498 19.1771 0.635498ZM14.6489 25.8567H10.9031V14.237H14.6489V25.8567ZM12.7529 12.8106C11.5698 12.8106 10.8049 12.0026 10.8049 11.0033C10.8049 9.98364 11.5929 9.19983 12.8011 9.19983C14.0092 9.19983 14.7491 9.98364 14.7723 11.0033C14.7723 12.0026 14.0092 12.8106 12.7529 12.8106ZM28.3297 25.8567H24.5839V19.4172C24.5839 17.9183 24.0405 16.9005 22.6859 16.9005C21.6512 16.9005 21.0365 17.5896 20.7648 18.2527C20.6646 18.4885 20.6396 18.8229 20.6396 19.1553V25.8549H16.8918V17.9425C16.8918 16.4919 16.8436 15.279 16.7936 14.2352H20.048L20.2195 15.8492H20.2947C20.7879 15.0914 21.9961 13.9733 24.0174 13.9733C26.4818 13.9733 28.3297 15.565 28.3297 18.9863V25.8567V25.8567Z" fill="#3FA0BB"/>
</svg>
